<svg width="179" height="22" viewBox="0 0 179 22" fill="none" xmlns="http://www.w3.org/2000/svg">
<path id="Vector 3" d="M2 20.2804C3.26139 19.4695 4.92938 19.34 6.35247 19.0037C11.9564 17.6791 17.4613 15.9772 23.066 14.6512C42.7885 9.98513 63.076 5.85409 83.2461 3.79902C91.48 2.9601 99.7511 2.55228 108.026 2.5223C108.095 2.52205 112.72 2.52777 113.423 2.63836C114.54 2.81402 113.478 3.4084 113.133 3.62492C112.275 4.16327 108.4 6.13903 107.852 6.4105C105.154 7.74839 101.938 8.26027 99.6695 10.2407C96.5936 12.9255 107.855 10.9667 111.914 10.5308C133.903 8.17021 154.937 4.74524 176.969 2" stroke="#FF2574" stroke-width="3" stroke-linecap="round"/>
</svg>
